# xmcd
#
# Track frame offsets:
#	151
#	17826
#	34818
#	57938
#	70397
#	85413
#	101058
#	115030
#	132048
#	147509
#	161657
#	177435
#	193741
#	211156
#	233013
#	250027
#	265085
#	279920
#
# Disc length: 3943 seconds
#
# Revision: 1
# Processed by: cddbd v1.5.2PL0 Copyright (c) Steve Scherf et al.
# Submitted via: EZCDAudioConverter 4.0.4.1
#
DISCID=000f6512
DTITLE=Kenny Rogers - The Most Classic of Kenny Rogers
DYEAR=2010
DGENRE=Country
TTITLE0=Kenny Rogers - Lady
TTITLE1=Kenny Rogers - Stardust
TTITLE2=Kenny Rogers - The King Of Oak Street
TTITLE3=Kenny Rogers - Somewhere My Love
TTITLE4=Kenny Rogers - Crazy
TTITLE5=Kenny Rogers - When I Fall In Love
TTITLE6=Kenny Rogers - Love Me Tender
TTITLE7=Kenny Rogers - Desperado
TTITLE8=Kenny Rogers - Unforgettable
TTITLE9=Kenny Rogers - Today I Started Loving You Again
TTITLE10=Kenny Rogers - Unchained Melody
TTITLE11=Kenny Rogers - Evergreen
TTITLE12=Kenny Rogers - Endless Love
TTITLE13=Kenny Rogers - Have I Told You Lately That I Love You
TTITLE14=Kenny Rogers Ft. Alison Krauss And Billy Dean - Buy Me A Rose
TTITLE15=Kenny Rogers - Misty
TTITLE16=Kenny Rogers - A Love Song
TTITLE17=Kenny Rogers - I Don't Need You
EXTD=
EXTT0=
EXTT1=
EXTT2=
EXTT3=
EXTT4=
EXTT5=
EXTT6=
EXTT7=
EXTT8=
EXTT9=
EXTT10=
EXTT11=
EXTT12=
EXTT13=
EXTT14=
EXTT15=
EXTT16=
EXTT17=
PLAYORDER=
